<svg width="72" height="52" viewBox="0 0 72 52" fill="none" xmlns="http://www.w3.org/2000/svg">
<path d="M36.3577 49.0998L37.4457 48.0139C40.891 45.0278 51.2087 39.8701 64.9174 43.1276V5.93758M36.3577 49.0998V8.92361C45.7144 -1.2833 59.2961 0.508342 64.9174 2.68002V5.93758M36.3577 49.0998C41.979 46.8376 56.8119 44.0506 71.1734 51V5.93758C70.6294 5.39466 68.6166 4.63457 64.9174 5.93758" stroke="black"/>
<path d="M35.8157 49.0998L34.7277 48.0139C31.2824 45.0278 20.9646 39.8701 7.25591 43.1276V5.93758M35.8157 49.0998V8.92361C26.4589 -1.2833 12.8772 0.508342 7.25591 2.68002V5.93758M35.8157 49.0998C30.1944 46.8376 15.3614 44.0506 0.999958 51V5.93758C1.54395 5.39466 3.55674 4.63457 7.25591 5.93758" stroke="black"/>
</svg>
