<svg width="54" height="41" viewBox="0 0 54 41" fill="none" xmlns="http://www.w3.org/2000/svg">
<line x1="14.7607" y1="38.0873" x2="14.7607" y2="4.91268" stroke="white"/>
<line y1="-0.5" x2="15.608" y2="-0.5" transform="matrix(0.584986 -0.811043 0.808837 0.588033 6.13037 17.5714)" stroke="white"/>
<line y1="-0.5" x2="15.608" y2="-0.5" transform="matrix(-0.584986 -0.811043 -0.808837 0.588033 23.9565 17.5714)" stroke="white"/>
<line y1="-0.5" x2="33.1746" y2="-0.5" transform="matrix(0 1 1 0 38.739 4.4762)" stroke="white"/>
<line y1="-0.5" x2="15.608" y2="-0.5" transform="matrix(0.584986 0.811043 0.808837 -0.588033 29.6086 24.9921)" stroke="white"/>
<line y1="-0.5" x2="15.608" y2="-0.5" transform="matrix(-0.584986 0.811043 -0.808837 -0.588033 47.4348 24.9921)" stroke="white"/>
<path d="M0.35381 9.33761C1.17514 8.66561 1.80981 8.11961 2.25781 7.69961C2.70581 7.27027 3.02781 6.88761 3.22381 6.55161C3.41981 6.21561 3.51781 5.87961 3.51781 5.54361C3.51781 5.17027 3.40114 4.86694 3.16781 4.63361C2.94381 4.39094 2.64981 4.26961 2.28581 4.26961C1.54848 4.26961 1.01648 4.84827 0.68981 6.00561C0.68981 6.01494 0.671143 6.01961 0.63381 6.01961C0.54981 6.01961 0.512477 6.00094 0.52181 5.96361L1.06781 3.83561C1.06781 3.81694 1.08648 3.80761 1.12381 3.80761C1.15181 3.80761 1.17514 3.81694 1.19381 3.83561C1.22181 3.84494 1.23114 3.85427 1.22181 3.86361C1.21248 3.90094 1.20781 3.95227 1.20781 4.01761C1.20781 4.16694 1.27781 4.24161 1.41781 4.24161C1.50181 4.24161 1.64181 4.20894 1.83781 4.14361C2.22048 4.02227 2.56114 3.96161 2.85981 3.96161C3.33581 3.96161 3.70914 4.09227 3.97981 4.35361C4.25981 4.60561 4.39981 4.93694 4.39981 5.34761C4.39981 5.67427 4.29248 6.00094 4.07781 6.32761C3.87248 6.65427 3.56448 7.00427 3.15381 7.37761C2.75248 7.74161 2.18781 8.20361 1.45981 8.76361C1.42248 8.79161 1.40848 8.81494 1.41781 8.83361C1.43648 8.85227 1.46914 8.86161 1.51581 8.86161C2.54248 8.86161 3.25648 8.84761 3.65781 8.81961C4.05914 8.79161 4.34848 8.71694 4.52581 8.59561C4.70314 8.47427 4.82448 8.25961 4.88981 7.95161C4.88981 7.93294 4.91314 7.92361 4.95981 7.92361C5.02514 7.92361 5.05781 7.93761 5.05781 7.96561L4.84781 9.39361C4.84781 9.43094 4.83381 9.46827 4.80581 9.50561C4.78714 9.53361 4.75914 9.54761 4.72181 9.54761H0.45181C0.405143 9.54761 0.36781 9.52427 0.33981 9.47761C0.31181 9.42161 0.316477 9.37494 0.35381 9.33761Z" fill="white"/>
<path d="M48.6146 39.4566C49.4359 38.7846 50.0706 38.2386 50.5186 37.8186C50.9666 37.3893 51.2886 37.0066 51.4846 36.6706C51.6806 36.3346 51.7786 35.9986 51.7786 35.6626C51.7786 35.2893 51.6619 34.986 51.4286 34.7526C51.2046 34.51 50.9106 34.3886 50.5466 34.3886C49.8092 34.3886 49.2772 34.9673 48.9506 36.1246C48.9506 36.134 48.9319 36.1386 48.8946 36.1386C48.8106 36.1386 48.7732 36.12 48.7826 36.0826L49.3286 33.9546C49.3286 33.936 49.3472 33.9266 49.3846 33.9266C49.4126 33.9266 49.4359 33.936 49.4546 33.9546C49.4826 33.964 49.4919 33.9733 49.4826 33.9826C49.4732 34.02 49.4686 34.0713 49.4686 34.1366C49.4686 34.286 49.5386 34.3606 49.6786 34.3606C49.7626 34.3606 49.9026 34.328 50.0986 34.2626C50.4812 34.1413 50.8219 34.0806 51.1206 34.0806C51.5966 34.0806 51.9699 34.2113 52.2406 34.4726C52.5206 34.7246 52.6606 35.056 52.6606 35.4666C52.6606 35.7933 52.5532 36.12 52.3386 36.4466C52.1332 36.7733 51.8252 37.1233 51.4146 37.4966C51.0132 37.8606 50.4486 38.3226 49.7206 38.8826C49.6832 38.9106 49.6692 38.934 49.6786 38.9526C49.6972 38.9713 49.7299 38.9806 49.7766 38.9806C50.8032 38.9806 51.5172 38.9666 51.9186 38.9386C52.3199 38.9106 52.6092 38.836 52.7866 38.7146C52.9639 38.5933 53.0852 38.3786 53.1506 38.0706C53.1506 38.052 53.1739 38.0426 53.2206 38.0426C53.2859 38.0426 53.3186 38.0566 53.3186 38.0846L53.1086 39.5126C53.1086 39.55 53.0946 39.5873 53.0666 39.6246C53.0479 39.6526 53.0199 39.6666 52.9826 39.6666H48.7126C48.6659 39.6666 48.6286 39.6433 48.6006 39.5966C48.5726 39.5406 48.5772 39.494 48.6146 39.4566Z" fill="white"/>
</svg>
