<svg width="40" height="40" viewBox="0 0 40 40" fill="none" xmlns="http://www.w3.org/2000/svg">
<g clip-path="url(#clip0_123_81)">
<path d="M20 10.5096L5.73419 22.2703C5.73419 22.2869 5.73002 22.3113 5.72168 22.3446C5.71351 22.3776 5.70917 22.4016 5.70917 22.4186V34.3276C5.70917 34.7576 5.86637 35.1302 6.18069 35.444C6.49492 35.7579 6.86703 35.9159 7.2971 35.9159H16.824V26.3885H23.1762V35.9163H32.703C33.1329 35.9163 33.5056 35.7586 33.8194 35.444C34.1337 35.1305 34.2914 34.7576 34.2914 34.3276V22.4186C34.2914 22.3526 34.2824 22.3027 34.2664 22.2703L20 10.5096Z" fill="white"/>
<path d="M39.7241 19.5906L34.2909 15.0751V4.95231C34.2909 4.72089 34.2165 4.53058 34.0672 4.38163C33.9191 4.23286 33.7288 4.15847 33.4969 4.15847H28.7333C28.5017 4.15847 28.3114 4.23286 28.1624 4.38163C28.0137 4.53058 27.9394 4.72098 27.9394 4.95231V9.79032L21.8858 4.7288C21.3571 4.29873 20.7284 4.08374 20.0006 4.08374C19.2728 4.08374 18.6442 4.29873 18.115 4.7288L0.275636 19.5906C0.110264 19.7227 0.0196269 19.9005 0.00276822 20.1238C-0.0140036 20.347 0.0437852 20.5419 0.176308 20.7072L1.71453 22.5432C1.84706 22.692 2.02051 22.783 2.23559 22.8163C2.43415 22.8329 2.63272 22.7749 2.83129 22.6426L20 8.32648L37.1689 22.6425C37.3016 22.7579 37.4749 22.8156 37.69 22.8156H37.7646C37.9793 22.7829 38.1524 22.6913 38.2856 22.5429L39.824 20.7071C39.9563 20.5415 40.0142 20.3469 39.997 20.1235C39.9801 19.9007 39.8891 19.7229 39.7241 19.5906Z" fill="white"/>
</g>
<defs>
<clipPath id="clip0_123_81">
<rect width="40.0001" height="40" fill="white"/>
</clipPath>
</defs>
</svg>
