<?xml version="1.0" encoding="utf-8"?>
<!-- Generator: Adobe Illustrator 26.0.3, SVG Export Plug-In . SVG Version: 6.00 Build 0)  -->
<svg version="1.1" id="Слой_1" xmlns="http://www.w3.org/2000/svg" xmlns:xlink="http://www.w3.org/1999/xlink" x="0px" y="0px"
	 viewBox="0 0 477.3 123.7" style="enable-background:new 0 0 477.3 123.7;" xml:space="preserve">
<style type="text/css">
	.st0{fill:#FFFFFF;}
</style>
<g id="Слой_2_00000089559066859750075840000014703006109454154379_">
	<g id="Слой_1-2">
		<path class="st0" d="M46.1,73.8c2.1,2.1,0.7,10.5-1.7,11.8l0.1-1.9c-1,0.3-2,0.8-2.9,1.3c-1.2,1-2.7,1.7-3.1,3.6
			c-0.1,0.4-1.3,0.9-2,0.8c-1.4-0.2-2.8-0.6-4.2-1c-2-0.5-2.5-1.5-2.3-3.6c0.1-2.2,0-4.4-0.2-6.6c-0.1-1.2-0.7-2.3,0.1-3.4
			c0.1-0.2-0.1-0.6-0.1-0.9s-0.4-1-0.2-1.2c1.2-1.7-0.1-3.4,0.2-5.2s0.5-3.6,0.6-5.4c0.2-3.6,0.2-7.2,0.5-10.8
			c0.5-4.7,1.2-9.3,1.9-13.9c0.5-3.8,0.7-7.6,1.6-11.3c1-4.1,0.9-8.2,1.4-12.3c0.2-1.3,0.4-2.5,0.6-4.1c-0.7,0.3-1.5,0.6-2.2,1
			c-4.1,2.5-8.5,4.4-13.1,5.5c-1.1,0.2-1.9,0.7-1.9,2S19,21,19,22.3c0.1,2.5-0.4,5-1.4,7.3c-0.6,1.5-1,3.1-1.2,4.8
			c-0.3,1.8-0.2,3.7-0.5,5.5c-0.3,1.6-0.7,3.1-1.2,4.6c-0.2,0.8-0.6,1.5-0.7,2.3c-0.5,2.6-1,5.2-1.4,7.9c-0.5,4.5-1,9-1.3,13.4
			c-0.3,4-0.3,7.9-0.5,11.9c0,1.2-0.3,2-1.8,1.9c-0.4,0-0.8,0.3-1.2,0.6c-0.8,0.7-1.6,1.4-2.4,2c-1.3,0.8-3,0.5-3.8-0.8
			c-0.2-0.3-0.4-0.7-0.4-1.1c-0.4-1.6-0.7-3.3-0.8-4.9C0.3,68.5,0.1,59.3,0,50.1c0.1-1.7,0.2-3.4,0.4-5.1c0.1-0.5,0.2-1.1,0.2-1.6
			C-0.2,39.6,1,36,1.2,32.2c0.1-1.5,0.8-2.9,1-4.4c0.3-2.7,0.3-5.5,0.7-8.2c0.5-3,1.5-5.9,2.1-8.9C5.4,9.4,5.4,8,5.3,6.5
			C5.2,4.1,6.5,2.7,9,2.8c1.4,0,2.8-0.2,4.1-0.4c1.4-0.2,2.7-0.5,4.1-0.6c3.3-0.4,6.6-0.8,9.9-1c2.6-0.3,5.5,0.1,8-0.5
			c3.5-0.9,6.2,0.8,8.6,2.4c2.8,1.9,4.8,4.9,5.3,8.3c1.2,7.4,1.2,14.9,0.1,22.3c-0.3,2-1.1,4-1,6c0,4.5-1,9-0.7,13.4
			c0.2,2.8-0.8,5.5-0.3,8.1c0.4,2.2,0.4,4.4,0.1,6.6c-0.1,1.2-1,2.1-0.5,3.5c0.2,1.1-0.3,2.3-1.3,2.9c-0.6,0.3-0.5,1.8-0.7,2.8
			c0,0.1,0.5,0.5,0.5,0.4c0.3-0.2,0.6-0.5,0.7-0.8C46.1,75.4,46.1,74.6,46.1,73.8z"/>
		<path class="st0" d="M32.3,115.4c-1.1,1.1-2.2,2.1-4.1,1.9c-1,0.1-1.9,0.3-2.9,0.6c-2.9,0.6-5.8,1.2-8.7,1.9
			c-0.7,0.1-1.3,0.2-2,0.3l-0.2-0.4c0.4-0.4,0.9-0.7,1.4-1c3.8-1.3,7.6-2.7,11.4-3.9c1-0.3,2.3,0,3.1-0.5c2-1.3,4.4,0.2,6.2-0.8
			c4.2-2.3,9-1.6,13.4-2.8c3.7-1,7.5-1.2,11.2-2.2c7.1-1.8,11.6-6.7,13.8-13.6c1.6-5,3.3-10,3.5-15.3c0.1-1.7-0.2-3.5-0.3-5.2
			L77.7,74c-0.7,0.5-1.3,1-1.9,1.6c-1.9,2.6-2.3,2.8-5.4,1.7c-4-1.4-7.8-3-10.8-6.2c-2.3-2.6-2.8-6.3-1.3-9.4
			c1.5-2.9,3.2-5.7,4.7-8.5s1.4-5.8,1.2-8.8c-0.1-1.5,0-3,0.3-4.5c1.6,2.1,2.5,4.5,2.8,7.1c0.7,6.1,1.2,12.3,1.8,18.4
			c0.1,1,0,2,1.4,2.2c1.1,0.3,2.3-0.4,2.6-1.6c0,0,0,0,0,0c1.5-4.9,3.1-9.8,4.7-14.7c0.7-2,1.4-3.9,2.2-5.8c0.5-1.2,3.2-2.8,4.5-2.6
			c0.5,0.1,1,0.4,1.4,0.8c1.5,1.6,2.7,3.2,2.4,5.7c-0.3,3.2-0.5,6.5-0.4,9.7c0.1,3.2,0.5,6.4,1,9.5c1.1,6.6,0,13-1.4,19.3
			C86.8,92,85.6,96,84,100c-1.4,3.4-2.6,7-6,9.1c-6,3.7-12,7.2-19.3,8.1c-2.8,0.4-5.6,0.5-8.4,0.3c-1.4-0.1-3.4-1.2-4.8,0.6
			c-0.1,0.1-0.3,0.1-0.5,0c-2-0.2-3.9-0.4-5.8-0.6c-0.3,0-0.7-0.2-1-0.1C35.7,118.6,33.9,117.2,32.3,115.4z"/>
		<path class="st0" d="M119,77.8c-0.3-0.4-0.6-0.8-0.8-1.2c-0.8-2.8-1.5-5.7-2-8.6c-0.7-5.4-1-10.9-1.6-16.3
			c-0.1-0.6-0.8-1.8-1.1-1.7c-1,0-1.9,0.4-2.6,1.1c-0.7,1-1.2,2.2-1.5,3.4c-0.8,2.5-1.4,5.1-2.2,7.7c-0.2,0.6-0.7,1.2-0.9,1.8
			s-2,1.3-0.4,2.3c0,0,0,0.1,0,0.2c-0.8,2.3-1.7,4.4-2.8,6.5c-0.6,0.9-2.2,1.2-3.3,1.7c-0.5,0.1-1,0.1-1.3-0.2
			c-1.4-1.4-3.1-2.8-2.9-5.1c0.2-4.1,0.8-8.2,0.4-12.3c-0.3-3.6,0.3-7.5-2.2-10.7c-0.4-0.6-0.7-1.3-0.7-2c-0.1-1.2,0.3-2.4,1.6-2.3
			c2.8,0.2,5.6,0.6,8.3,1.3c2.2,0.6,3.4,0.7,4.9-1c2.6-2.8,2.6-2.9,6.2-1.5c1.8,0.6,3.5,1.3,5.2,2.1c1.2,0.7,2.7,0.3,3.4-0.9
			c0,0,0-0.1,0.1-0.1c0.2-0.3,0.4-0.5,0.6-0.8c0.9-1.2,1.9-1.8,3.6-1c4.6,2.1,9.3,4,13.9,6c1,0.5,1.9,1.2,2.7,1.9
			c1.4,1.3,1.4,2.3,0.6,4c-1.3,2.7-2.4,5.5-3.6,8.3c-0.2,0.4-0.4,0.8-0.6,1.1c-1,1.3-2.7,2.2-2,4.3c0,0.3-0.1,0.7-0.3,0.9
			c-1.4,1.4-0.7,3.5-1.4,5.1c-0.1,0.1,0.1,0.3,0.4,0.9c1.3-1.5,2.5-2.9,3.7-4.2c0.4-0.4,0.8-0.7,1.3-0.9c0,0.6,0.2,1.3-0.1,1.7
			c-1.3,2.2-2.2,4.6-4.7,5.7c-2.1,1-3.6,0.6-4.8-1.5c-1.2-2.2-1.8-4.7-1.9-7.3c-0.2-4.7-0.6-9.4-0.9-14.1c0-0.5-0.1-1.1-0.4-1.4
			c-0.5-0.4-1.2-0.6-1.8-0.6c-0.2,0-0.8,0.9-0.7,1.3c0.5,3.2-1,5.8-2.6,8.4c-0.2,0.4-0.5,0.7-0.8,1c-3.1,3.8-3.9,8.2-3.4,13
			c0,1.3,0,2.6-0.2,3.9L119,77.8z"/>
		<path class="st0" d="M398.5,64.2c0.7,0.3,1.1,1.1,0.8,1.8c-0.1,0.3-0.3,0.5-0.6,0.7c-1,0.7-1.5,2-1,3.2c0.1,0.8,0,1.7-0.2,2.4
			l0.5,0.3c1.5-1.7,3-3.4,4.8-5.3c0.1,0.6,0.3,1,0.2,1.2c-1.2,2.5-2.3,5.1-5,6.4c-1.8,0.9-3,0.8-4-1c-1.1-1.7-1.8-3.6-2.2-5.6
			c-0.4-2.6-0.2-5.3-0.5-8c-0.3-3-0.7-6.1-1-9.1c-0.1-1.2-0.9-1.5-1.9-1.4s-1,0.9-0.9,1.7c0.5,3-1,5.4-2.4,7.8
			c-0.6,1.1-1.3,2.1-2.1,3.1c-2.3,3.1-2.4,6.7-2.3,10.3c0.1,1.6,0,3.2,0,4.9l-0.7,0.2c-0.3-0.7-0.7-1.3-1-1.9
			c-1.8-4.3-1.8-8.8-2.2-13.3c-0.3-3.8-0.8-7.6-1.2-11.3c-0.1-1.1-1-1.7-1.8-1.3c-1.2,0.4-2.2,1.1-2.9,2.2c-1.1,2.4-2.1,4.9-2.9,7.4
			c-0.1,0.2-0.2,0.6-0.1,0.8c0.9,2-0.4,3.1-1.6,4.3c-0.4,0.4-1.2,1,0,1.7c0.3,0.2,0.2,1.4,0,2.1c-0.4,1.3-0.9,2.5-1.5,3.7
			c-0.9,2-3.2,2.9-5.2,2c-0.6-0.3-1.2-0.7-1.6-1.3c-1-1.2-1.6-2.7-1.5-4.3c0.4-3.8,0.5-7.6,0.4-11.4c-0.2-3.6,0.4-7.6-2-10.8
			c-0.4-0.5-0.6-1.1-0.7-1.8c-0.3-1.1,0.3-2.3,1.4-2.6c0.3-0.1,0.6-0.1,0.9-0.1c3.1,0.1,6.2,0.4,9,1.9c1.6,0.9,2.7-0.8,3.5-1.7
			c2.7-2.7,2.6-2.8,6.1-1.5c1.8,0.7,3.6,1.4,5.4,2.1c1.2,0.7,2.7,0.3,3.4-0.8c0,0,0,0,0,0c0.2-0.3,0.5-0.6,0.7-0.9
			c0.6-1.2,2.2-1.7,3.4-1.1c0.1,0,0.1,0.1,0.2,0.1c4.5,2.1,9.1,3.9,13.6,5.9c0.6,0.3,1.1,0.6,1.6,1c2.9,2.3,2.8,2.3,1.1,5.5
			c-1,1.8-1.9,3.7-2.8,5.6c-0.1,0.2-0.2,0.3-0.2,0.5c0.5,2.4-1.5,3.5-2.7,4.9C398.9,63.7,398.7,63.9,398.5,64.2z"/>
		<path class="st0" d="M419.7,76.2c-0.7,1.4-1.3,2.5-2.7,2.8s-2.3-0.7-3-1.8c-2-3.3-1.9-6.9-1.5-10.5c0.7-5.7,1.4-11.4,2.2-17.1
			c0.5-4,1.1-8.1,1.9-12.1c0.4-1.7,1-3.4,1.8-5c0.5-1.1,1.3-1.5,2.5-0.5c0.7,0.5,1.5,0.9,2.4,1.3c2.2,1.1,3,3.1,3.7,5.2
			c0.1,0.3-0.2,0.8-0.4,1.2c-0.9,2-1.6,4.1-2.1,6.3c0.9-0.7,1.8-1.4,2.6-2.2s1.9-1.8,2.9-2.6c0.9-0.6,1.5-1.6,1.5-2.7
			c0.1-2.2,1.2-2.8,3.1-1.8c2.1,0.9,4,2,5.8,3.4c3,2.6,3.3,7.2,0.7,10.2c-0.9,1-2,1.7-3.3,2.1c-3,1-6.3,1.1-9.5,1.6
			c-0.5,0.1-1.1,0.1-2.1,0.1c0.4,0.4,0.8,0.7,1.3,1.1c1.5,1,3.2,1.9,4.6,3c2.8,2.4,5,5.5,6.5,8.9c1,2.3,2.5,3.7,5,4
			c0.2,0,0.4,0.1,0.6,0.2c0,0,0.1,0.1,0.1,0.2c0,1-0.9,1.8-1.9,1.8c-0.1,0-0.2,0-0.3,0c-2-0.2-4.2-0.4-5.9-1.3
			c-2.1-1.3-4-2.8-5.7-4.6c-2.3-2.2-4.4-4.7-6.7-7c-0.8-0.6-1.7-1.2-2.7-1.6c-0.6,1.8-1.1,3.3-1.5,4.8c-0.7,3.4-1.3,6.8-1.9,10.3
			C417.2,75.3,417.4,76.7,419.7,76.2z"/>
		<path class="st0" d="M463.2,60c-0.8,1.8-1.6,3.5-2.4,5.3c0,0.2-0.1,0.3-0.1,0.5c-0.6,4.3-2.1,6-4.9,5.8c-4.2-0.3-7.1-2.9-7.2-6.8
			c0-1.8,0.2-3.6,0.8-5.4c1.2-4,3.1-7.8,5.6-11.1c2.2-2.6,4.6-5,7-7.4c0.8-0.8,1.6-1.6,2.4-2.4c0.5-0.6,1.4-0.7,2-0.2
			c0.1,0.1,0.2,0.1,0.2,0.2c2,1.8,4,3.5,6.1,5.2c1.9,1.5,3.2,3.7,3.4,6.2c0.2,1.8,1.1,3.5,1.1,5.3c-0.2,5.6-0.7,11.2-1.1,16.7
			c-0.1,0.3-0.1,0.5-0.1,0.8c0.7,2.7-1.4,3.5-3.1,4.3c-0.9,0.2-1.9,0-2.6-0.5c-1.9-1.5-3.7-3.1-5.4-4.8c-0.4-0.6-0.7-1.3-0.6-2
			c-0.1-2.8-0.1-5.7-0.2-8.5c0-0.3-0.1-0.7-0.3-1L463.2,60z M464,50.9c-0.2,0-0.3-0.1-0.4,0c-0.2,0.1-0.5,0.2-0.7,0.4
			c-3.4,2.4-6.1,5.6-8,9.3c-0.4,1.1-0.6,2.3-0.7,3.6l0.5,0.2c0.4-0.2,0.9-0.5,1.3-0.8c1.7-1.6,3.4-3,5.3-4.4
			C464.6,57,464.2,53.9,464,50.9L464,50.9z"/>
		<path class="st0" d="M279.6,77.8c-0.4-0.5-0.7-1.1-0.9-1.6c-1.8-4.3-1.9-8.8-2.2-13.3c-0.3-3.9-0.7-7.8-1.2-11.7
			c-0.1-1.2-1.2-1.7-2.5-1.2c-1.5,0.5-2.6,1.8-3,3.3c-0.6,2.3-1.5,4.4-2.2,6.7c-0.2,0.5-0.2,1.1,0,1.6c0.4,0.5,0.3,1.3-0.3,1.6
			c-0.1,0.1-0.2,0.1-0.3,0.2c-1.1,0.3-1.6,1.5-1.3,2.5c0,0.1,0.1,0.2,0.1,0.3c1,3.2-2.2,8.1-5.5,8.5c-0.5,0.1-1,0-1.4-0.3
			c-1.4-1.5-3.1-2.9-2.9-5.3c0.4-3.9,0.5-7.8,0.4-11.7c-0.2-3.7,0.3-7.6-2.1-11c-0.4-0.7-0.7-1.5-0.7-2.3c-0.1-1,0.6-1.9,1.6-2.1
			c0.2,0,0.3,0,0.5,0c3.2,0.1,6.3,0.3,9.2,1.9c1.7,1,3-0.7,3.5-1.6c1.8-2.8,3.8-2.9,6.5-1.5c1.8,0.9,3.8,1.5,5.7,2.3
			c2.7,1.1,4.9,3.3,5.9,6.1c0.6,2,0.6,4.1,0,6.1c-0.7,2.2-1.9,4.3-3.4,6.2c-2.6,3.4-3.2,7.3-3,11.4c0.1,1.6,0,3.2,0,4.8L279.6,77.8z
			"/>
		<path class="st0" d="M222.7,55c0.3-3.4,1.4-6.7,3.2-9.6c0.7-1.2,1.4-2.4,2.2-3.6c1.3-2.1,3-3,5.4-2.5c2.9,0.6,5.8,1.5,8.5,2.7
			c2.1,1.2,3.9,2.7,5.4,4.6c1.1,1.2,0.6,2.9,0,4.3c-1.7,4.3-5.5,8.9-11.4,8.7c-1.2,0-2.3,0-3.5,0.1c-0.4,0-0.9,0.5-0.9,0.7
			c-0.1,1.8,0,3.6,0.2,5.4c0.4,1.8,2.4,2.4,4.4,1.3c3.8-2.2,7.6-4.6,11.3-7.1c1.9-1.3,2.7-1.2,3.9,0.8c1,1.5,0.7,2.7,0.2,4.2
			c-1.2,3.2-3.3,5.9-6,8c-1.4,1.3-3.3,1.9-5.2,1.6c-7.2-1.4-13.2-6.3-16.1-13C223.3,59.6,223.2,57.2,222.7,55z M233.3,54.2l0.5,0.3
			c1.3-1.5,2.7-2.9,3.8-4.5c0.3-0.5,0-1.4-0.1-2.1c-0.7,0.1-1.7,0-2,0.4C234.2,50,233.5,52.1,233.3,54.2L233.3,54.2z"/>
		<path class="st0" d="M303.1,59.6c-0.6,0.1-1.2,0.2-1.8,0.1c-1.6-0.5-2,0.4-2.1,1.7c-0.1,1.1,0,2.2,0.1,3.4
			c0.5,2.7,2.4,3.7,4.8,2.3c3.9-2.3,7.7-4.8,11.5-7.3c1.4-0.9,2.1-1.1,3.1,0.2c1.1,1.2,1.5,2.9,0.9,4.4c-1.3,3.6-3.7,6.7-6.7,9
			c-1.9,1.5-3.9,1.5-6.1,1c-4-0.9-7-3.3-10-5.9c-4.2-3.4-6.4-8.8-5.9-14.2c0.4-2.8,1.2-5.5,2.3-8.1c0.7-1.6,1.6-3.1,2.7-4.6
			c1.7-2.5,3.4-2.9,6.2-2.1c1,0.3,2,0.6,3.1,0.8c4.1,0.6,6.9,3.4,9.6,6.1c0.7,0.6,0.5,2.6,0.1,3.8c-1.3,4.1-4.5,6.8-8,8.9
			C306,59.7,304.4,59.5,303.1,59.6L303.1,59.6z M301.2,54.2l0.5,0.3c1.3-1.6,2.7-3.1,3.9-4.8c0.3-0.4-0.1-1.2-0.2-1.8
			c-0.7,0.1-1.6,0-2,0.4C302.2,50,301.4,52,301.2,54.2z"/>
		<path class="st0" d="M339.8,49c-2.7,0.6-3.2,2.7-4.2,4.5c-1.7,3-2,6.5-2.2,9.8c-0.1,1.3,0.8,2.6,1.3,3.9c0.1,0.2,1,0.3,1.4,0.1
			c3.2-2.1,6.4-4.3,9.6-6.5l2.8,1.2c1,0.3,1.6,1.4,1.3,2.4c-0.8,3.2-1.9,6.2-5.2,7.8c-1.5,0.9-3,1.6-4.6,2.2c-3,0.8-5.5-0.7-7.8-2.2
			c-1.8-1.4-3.4-2.9-4.9-4.5c-4.1-3.9-4.9-8.8-3.9-14.1c0.8-4.2,2.2-8,5.5-11c2.3-2.1,4.6-3,7.6-2.1c2.2,0.7,4.4,1.4,6.6,1.9
			c1.5,0.3,2.7,1.4,3.2,2.9c0.9,2.6,1.6,5.3,2.2,8c0.3,1.5-1.5,2.4-3.2,1.8c-1-0.3-1.9-0.6-2.8-1.1c-0.6-0.4-1.1-1.1-1.5-1.8
			C340.7,51.2,340.2,50.1,339.8,49z"/>
		<path class="st0" d="M216.7,75.9c-4.1-6-8.4-11.5-10.2-18.4l-0.6,0.2c-0.2,0.7-0.4,1.5-0.6,2.2c-1,3.2-1.9,6.5-3.2,9.6
			c-1.1,2.7-3.7,3.8-6.3,4.6c-1.1,0.2-2.3,0.4-3.4,0.4c-0.1-0.2-0.2-0.4-0.1-0.4c1.2-3.8,2.4-7.5,3.6-11.3c0.4-1.3,0.5-2.7,0.9-4
			c0.6-2.2,1.2-4.3,1.8-6.4c0.6-2.3,1.5-4.6,2.4-6.9c0.7-1.1,1.6-2,2.7-2.6c1.7-1.1,3.6-2,5.4-3s2.8-0.5,2.8,1.4
			c0.2,5.5,2.9,10.1,4.6,15.2c1.4,4.1,2.5,8.2,3.4,12.4c0.6,2.4-0.2,5-2.2,6.5C217.4,75.5,217,75.8,216.7,75.9z"/>
		<path class="st0" d="M160.8,52.1c1,0.1,2.1,0.1,3.1,0c4.1-1,6.9,1,9.6,3.6c0.3,0.3,0.5,0.7,0.7,1.1c1.2,5.1,1.1,11.3-3.8,15
			c-1.5,1.1-3.4,1.5-5.2,1.1c-4.2-0.7-8.3-1.7-12.4-2.6c-1.3-0.3-2.2-1.5-2-2.8c0-2.1-0.1-4.3-0.1-6.4s0.1-4,0.3-6.1
			c0.3-2.8,0.7-5.7,0.9-8.5c0-1.8,0-3.6-0.2-5.3c-0.1-1.4,0.4-2,1.9-1.8c0.9,0.1,1.7,0.1,2.6,0.2c3.9,0.2,5.1,2.9,4.1,6.9
			c-0.2,0.9-0.7,1.6,0.3,2.6c0.6,0.5,0.4,1.8,0.6,2.8L160.8,52.1z M165.3,54.4c-1.5,1.4-3,2.3-3.7,3.5c-1.6,2.7-0.8,5.8-1,8.8
			c0,0.2,0.4,0.6,0.7,0.7c3.1,0.9,5.7-0.9,5.6-4.2c-0.1-2-0.4-3.9-0.8-5.9C166,56.5,165.7,55.7,165.3,54.4L165.3,54.4z"/>
		<path class="st0" d="M10.8,121c-1.2,0.9-2.4,1.8-3.6,2.6c-0.2,0.1-0.7,0-0.7-0.1c-0.1-0.3-0.2-0.7-0.1-1c0.4-1.2,2.7-2.3,4.1-2
			L10.8,121z"/>
	</g>
</g>
</svg>
