<svg xmlns="http://www.w3.org/2000/svg" viewBox="0 0 477.29 123.67"><defs><style>.cls-1{fill:#cc1578;}</style></defs><g id="Слой_2" data-name="Слой 2"><g id="Слой_1-2" data-name="Слой 1"><path class="cls-1" d="M46.1,73.79c2.08,2.13.68,10.53-1.69,11.84l.13-1.89a14.26,14.26,0,0,0-2.89,1.32c-1.24,1-2.69,1.73-3.07,3.55-.08.41-1.32.87-2,.8a33.16,33.16,0,0,1-4.21-1c-1.95-.53-2.45-1.54-2.34-3.58a46.36,46.36,0,0,0-.22-6.56c-.11-1.15-.73-2.26.11-3.39.12-.16-.08-.58-.14-.88s-.36-1-.19-1.22c1.25-1.69-.07-3.44.19-5.15s.51-3.59.62-5.4c.22-3.61.16-7.25.52-10.85.47-4.65,1.25-9.26,1.88-13.88.51-3.77.69-7.62,1.58-11.3,1-4.07.92-8.19,1.41-12.28.16-1.26.39-2.51.63-4.07a20.72,20.72,0,0,0-2.19,1,43.58,43.58,0,0,1-13.14,5.47c-1.12.24-1.86.66-1.88,1.95S19,21,19,22.33a16.48,16.48,0,0,1-1.42,7.34,18,18,0,0,0-1.17,4.76c-.27,1.8-.19,3.65-.48,5.45a39.6,39.6,0,0,1-1.21,4.61c-.21.77-.56,1.51-.71,2.29-.49,2.62-1,5.24-1.35,7.88-.53,4.47-1,9-1.3,13.44-.27,4-.32,7.93-.47,11.9,0,1.16-.34,2-1.77,1.91-.38,0-.82.35-1.17.63a19.75,19.75,0,0,1-2.43,2,2.74,2.74,0,0,1-4.2-1.92,25.79,25.79,0,0,1-.75-4.92Q.19,63.92,0,50.14A49.38,49.38,0,0,1,.45,45a5.94,5.94,0,0,0,.15-1.6C-.2,39.63,1,36,1.25,32.23c.11-1.47.85-2.88,1-4.36.33-2.71.26-5.48.72-8.16.51-3,1.51-5.89,2.13-8.86a16.74,16.74,0,0,0,.21-4.3C5.2,4.08,6.48,2.74,9,2.77a29.12,29.12,0,0,0,4.15-.39c1.38-.17,2.74-.46,4.12-.62,3.28-.38,6.56-.78,9.86-1C29.77.5,32.59.9,35.15.25c3.53-.9,6.18.78,8.64,2.43A12.76,12.76,0,0,1,49.14,11a71.34,71.34,0,0,1,.08,22.31c-.27,2-1.06,4-1,6,0,4.5-1,9-.69,13.39.17,2.78-.79,5.48-.31,8.08a20.88,20.88,0,0,1,.07,6.55c-.13,1.15-1,2.1-.49,3.52a2.77,2.77,0,0,1-1.28,2.86c-.59.35-.53,1.8-.7,2.77,0,.11.48.46.52.42.26-.2.59-.46.65-.75A21.5,21.5,0,0,0,46.1,73.79Z"/><path class="cls-1" d="M32.33,115.38c-1.14,1.12-2.24,2.08-4.15,1.88a12.22,12.22,0,0,0-2.87.59c-2.92.56-5.81,1.25-8.72,1.87-.66.13-1.33.17-2,.26l-.2-.41a6.2,6.2,0,0,1,1.37-1c3.8-1.34,7.61-2.67,11.45-3.9,1-.32,2.3,0,3.12-.5,2.05-1.27,4.4.25,6.25-.78,4.21-2.34,9-1.56,13.4-2.77,3.66-1,7.53-1.2,11.2-2.15,7.15-1.84,11.63-6.65,13.8-13.58,1.56-5,3.29-10,3.49-15.35.06-1.74-.17-3.49-.27-5.24l-.52-.3a10,10,0,0,0-1.87,1.6c-1.89,2.62-2.3,2.78-5.37,1.72-4-1.37-7.81-3-10.75-6.18a8.38,8.38,0,0,1-1.29-9.39c1.51-2.88,3.18-5.67,4.71-8.52s1.38-5.79,1.24-8.8a18.18,18.18,0,0,1,.31-4.52A14.1,14.1,0,0,1,67.43,47c.65,6.14,1.2,12.28,1.81,18.42.09,1,0,2,1.4,2.15A2.13,2.13,0,0,0,73.22,66c1.54-4.91,3.1-9.82,4.72-14.71.65-2,1.44-3.92,2.25-5.85.51-1.24,3.2-2.8,4.47-2.59a2.66,2.66,0,0,1,1.37.75c1.49,1.58,2.67,3.24,2.43,5.68A77.87,77.87,0,0,0,88.07,59a70.6,70.6,0,0,0,1,9.5c1.09,6.57,0,13-1.38,19.31A76.25,76.25,0,0,1,84,100c-1.36,3.37-2.62,7-6,9.12-6,3.69-12,7.23-19.26,8.12a40.29,40.29,0,0,1-8.44.32c-1.39-.12-3.43-1.23-4.81.56-.06.08-.31.05-.46,0-1.95-.18-3.89-.37-5.84-.57-.32,0-.69-.2-1-.09C35.66,118.56,33.94,117.22,32.33,115.38Z"/><path class="cls-1" d="M119,77.85a4.61,4.61,0,0,1-.76-1.21,72,72,0,0,1-2-8.57c-.71-5.42-1-10.88-1.64-16.32-.07-.64-.79-1.75-1.14-1.72a3.91,3.91,0,0,0-2.58,1.07,10.45,10.45,0,0,0-1.48,3.37c-.78,2.54-1.42,5.12-2.19,7.67-.19.64-.72,1.18-.94,1.83s-2,1.29-.38,2.33c0,0,0,.11,0,.16A43.88,43.88,0,0,1,103.08,73c-.55.91-2.15,1.22-3.32,1.67a1.5,1.5,0,0,1-1.35-.23C97,73,95.34,71.68,95.47,69.31c.22-4.11.75-8.25.44-12.32-.27-3.58.29-7.46-2.15-10.67a4,4,0,0,1-.7-2c-.11-1.17.35-2.42,1.62-2.32A43.43,43.43,0,0,1,103,43.34c2.24.63,3.4.71,4.94-1,2.57-2.84,2.58-2.86,6.21-1.55,1.76.64,3.51,1.32,5.23,2.07a2.5,2.5,0,0,0,3.48-1q.27-.39.57-.78c.93-1.24,1.9-1.75,3.56-1,4.57,2.1,9.26,4,13.86,6a10.61,10.61,0,0,1,2.73,1.94c1.41,1.28,1.37,2.29.55,4-1.3,2.73-2.41,5.55-3.61,8.32a5,5,0,0,1-.62,1.1c-1,1.28-2.69,2.25-2,4.34a1.15,1.15,0,0,1-.3.9c-1.37,1.44-.68,3.46-1.45,5.06-.06.11.14.35.37.86,1.31-1.51,2.46-2.88,3.66-4.2a7.39,7.39,0,0,1,1.32-.92c0,.58.2,1.28-.06,1.71-1.26,2.15-2.22,4.56-4.72,5.72-2.14,1-3.63.56-4.82-1.54a15.78,15.78,0,0,1-1.85-7.26c-.2-4.71-.57-9.41-.89-14.12,0-.47-.06-1.14-.35-1.36A3.68,3.68,0,0,0,127,50c-.23,0-.77.88-.7,1.28.54,3.25-1,5.82-2.55,8.42a8.69,8.69,0,0,1-.75,1c-3.1,3.83-3.9,8.24-3.38,13a26.11,26.11,0,0,1-.15,3.94Z"/><path class="cls-1" d="M398.52,64.18a1.4,1.4,0,0,1,.28,2.49,2.63,2.63,0,0,0-1,3.18,7.49,7.49,0,0,1-.25,2.45l.54.35c1.53-1.69,3.05-3.39,4.81-5.33.12.62.33,1,.22,1.23-1.24,2.48-2.29,5.13-5,6.43-1.82.86-3,.78-4-1a16.85,16.85,0,0,1-2.16-5.61c-.44-2.62-.25-5.35-.47-8-.26-3-.67-6.07-1-9.11-.13-1.21-.92-1.46-1.94-1.37s-1,.9-.92,1.66c.46,3-1,5.41-2.35,7.84a31.1,31.1,0,0,1-2.08,3.06c-2.26,3.11-2.43,6.67-2.3,10.31.06,1.62,0,3.25,0,4.87l-.69.17c-.32-.65-.69-1.27-1-1.94-1.75-4.26-1.81-8.79-2.16-13.29-.29-3.79-.75-7.57-1.16-11.35-.12-1.07-1-1.66-1.82-1.29a5.87,5.87,0,0,0-2.92,2.16,77.17,77.17,0,0,0-2.94,7.44c-.09.25-.23.58-.14.78.89,2-.38,3.08-1.56,4.3-.41.43-1.17,1,0,1.74.32.2.19,1.45,0,2.13A25.08,25.08,0,0,1,365,72.22a3.91,3.91,0,0,1-6.74.7,5.83,5.83,0,0,1-1.49-4.26,88.68,88.68,0,0,0,.44-11.39c-.24-3.64.41-7.56-2.05-10.84a4.4,4.4,0,0,1-.7-1.78A2.08,2.08,0,0,1,356.72,42c3.11.11,6.17.37,9,1.93,1.6.87,2.67-.78,3.54-1.65,2.71-2.69,2.62-2.8,6.11-1.53,1.82.67,3.62,1.36,5.39,2.13a2.44,2.44,0,0,0,3.37-.86c.22-.31.45-.61.67-.91a2.53,2.53,0,0,1,3.56-1C392.87,42.18,397.45,44,402,46a7.09,7.09,0,0,1,1.65,1c2.86,2.28,2.83,2.28,1.1,5.51-1,1.83-1.88,3.71-2.81,5.57-.07.15-.21.32-.18.45.55,2.44-1.45,3.46-2.71,4.9A6.75,6.75,0,0,0,398.52,64.18Z"/><path class="cls-1" d="M419.66,76.2C419,77.6,418.38,78.74,417,79s-2.31-.66-3-1.78c-1.95-3.28-1.94-6.87-1.52-10.48.67-5.7,1.41-11.4,2.18-17.09.55-4,1.11-8.09,1.87-12.1a22.34,22.34,0,0,1,1.77-5c.48-1.07,1.32-1.45,2.45-.53a12.66,12.66,0,0,0,2.35,1.28c2.19,1.07,3,3.11,3.66,5.23.1.32-.24.78-.39,1.16a42.68,42.68,0,0,0-2.09,6.3c.87-.73,1.75-1.44,2.6-2.18s1.85-1.81,2.88-2.57a3.29,3.29,0,0,0,1.48-2.68c.14-2.19,1.17-2.79,3.1-1.77a26.85,26.85,0,0,1,5.75,3.41,7.21,7.21,0,0,1-2.6,12.31c-3,1-6.3,1.08-9.47,1.56-.53.08-1.06.07-2.06.13a15.41,15.41,0,0,0,1.27,1.06c1.52,1,3.16,1.86,4.58,3a23.66,23.66,0,0,1,6.45,8.92c1.05,2.33,2.47,3.67,4.95,4a2.61,2.61,0,0,1,.6.19s.06.08.14.18a1.84,1.84,0,0,1-2.22,1.73c-2-.24-4.17-.36-5.89-1.26a27.3,27.3,0,0,1-5.7-4.58c-2.31-2.23-4.39-4.71-6.66-7a13.65,13.65,0,0,0-2.67-1.63c-.56,1.81-1.14,3.3-1.46,4.84q-1.07,5.12-1.88,10.27C417.24,75.33,417.37,76.71,419.66,76.2Z"/><path class="cls-1" d="M463.2,60c-.79,1.76-1.58,3.52-2.35,5.28a1.86,1.86,0,0,0-.06.48c-.64,4.26-2.08,6-4.87,5.8-4.2-.26-7.15-2.93-7.19-6.81a17.24,17.24,0,0,1,.78-5.39,33.8,33.8,0,0,1,5.65-11.12c2.16-2.63,4.65-5,7-7.44.78-.81,1.59-1.59,2.4-2.37a1.43,1.43,0,0,1,2.24,0c2,1.77,4,3.51,6.07,5.18a8.62,8.62,0,0,1,3.35,6.17c.18,1.78,1.12,3.54,1.06,5.29-.2,5.58-.7,11.15-1.09,16.72a2.87,2.87,0,0,0-.1.8c.74,2.73-1.36,3.53-3.14,4.29a3.22,3.22,0,0,1-2.65-.53,56.92,56.92,0,0,1-5.44-4.75,3.23,3.23,0,0,1-.64-2c-.12-2.85-.12-5.69-.19-8.53a3.44,3.44,0,0,0-.3-1Zm.83-9.1c-.22,0-.34-.08-.42,0a4.8,4.8,0,0,0-.7.39,25.51,25.51,0,0,0-8,9.34,12.64,12.64,0,0,0-.69,3.56l.54.21a12.39,12.39,0,0,0,1.3-.82,57.91,57.91,0,0,1,5.29-4.4C464.65,57,464.23,53.94,464,50.86Z"/><path class="cls-1" d="M279.64,77.83a12.82,12.82,0,0,1-.94-1.64c-1.76-4.26-1.88-8.78-2.24-13.28-.32-3.9-.74-7.79-1.2-11.67-.14-1.21-1.21-1.73-2.46-1.22a4.74,4.74,0,0,0-3,3.28c-.61,2.26-1.51,4.43-2.21,6.67a2.43,2.43,0,0,0,0,1.6,1.17,1.17,0,0,1-.6,1.81,2,2,0,0,0-1.18,2.81c1,3.16-2.23,8.06-5.47,8.46a1.79,1.79,0,0,1-1.35-.29c-1.44-1.49-3.06-2.86-2.91-5.3a102.13,102.13,0,0,0,.44-11.72c-.19-3.7.33-7.64-2.08-11a4.26,4.26,0,0,1-.69-2.26A1.85,1.85,0,0,1,255.85,42c3.17.1,6.31.28,9.2,1.9,1.67,1,3-.68,3.52-1.56,1.77-2.82,3.76-2.94,6.45-1.55,1.8.93,3.79,1.49,5.66,2.3a10.58,10.58,0,0,1,5.9,6.09,10.55,10.55,0,0,1,0,6.12,19.72,19.72,0,0,1-3.35,6.17c-2.61,3.45-3.19,7.29-3,11.42.08,1.61,0,3.23,0,4.84Z"/><path class="cls-1" d="M222.74,55a21.54,21.54,0,0,1,3.16-9.63c.73-1.19,1.44-2.39,2.17-3.58,1.33-2.14,3-3,5.4-2.46A42.74,42.74,0,0,1,242,42a19.2,19.2,0,0,1,5.4,4.6c1.07,1.19.62,2.89,0,4.31-1.74,4.27-5.54,8.85-11.39,8.71a29.56,29.56,0,0,0-3.52.09c-.35,0-.94.46-.95.72a25.33,25.33,0,0,0,.23,5.38c.38,1.79,2.43,2.44,4.35,1.33q5.75-3.35,11.28-7.06c1.9-1.27,2.66-1.17,3.95.77,1,1.48.7,2.74.16,4.23a18.74,18.74,0,0,1-6,8,5.88,5.88,0,0,1-5.2,1.59,22.46,22.46,0,0,1-16.15-12.95C223.3,59.65,223.22,57.23,222.74,55Zm10.58-.76.48.26c1.29-1.49,2.67-2.91,3.81-4.51.33-.46,0-1.41-.09-2.13-.67.12-1.67,0-2,.4A11.5,11.5,0,0,0,233.32,54.23Z"/><path class="cls-1" d="M303.08,59.65a5.28,5.28,0,0,1-1.75.11c-1.62-.48-2.05.37-2.06,1.69a15.56,15.56,0,0,0,.15,3.35c.55,2.7,2.36,3.66,4.75,2.26,3.92-2.29,7.71-4.8,11.49-7.32,1.38-.92,2.11-1.07,3.14.24a4.24,4.24,0,0,1,.92,4.43,19.86,19.86,0,0,1-6.71,9c-1.87,1.46-3.94,1.47-6.12,1-4-.93-7-3.34-10-5.92A16.25,16.25,0,0,1,291,54.33a31.2,31.2,0,0,1,2.32-8.11A23.46,23.46,0,0,1,296,41.67c1.67-2.5,3.38-2.93,6.24-2.12a26,26,0,0,0,3.08.83c4.09.63,6.88,3.42,9.65,6.06.66.62.45,2.6.07,3.78-1.34,4.09-4.47,6.75-8,8.86-1.06.63-2.6.47-3.92.67Zm-1.84-5.49.53.3c1.31-1.57,2.69-3.1,3.89-4.75.26-.37-.15-1.22-.24-1.84-.67.11-1.65,0-1.95.37A11.12,11.12,0,0,0,301.24,54.16Z"/><path class="cls-1" d="M339.84,49c-2.67.61-3.25,2.72-4.24,4.45-1.73,3-2,6.46-2.18,9.81-.07,1.28.76,2.64,1.31,3.9.09.2,1,.28,1.37.07,3.21-2.12,6.37-4.3,9.6-6.5l2.84,1.21a2,2,0,0,1,1.34,2.45c-.76,3.23-1.92,6.23-5.17,7.83a28.88,28.88,0,0,1-4.62,2.24c-2.95.85-5.47-.71-7.76-2.25a40.16,40.16,0,0,1-4.91-4.52c-4.1-3.92-4.87-8.85-3.91-14.1.76-4.15,2.2-8,5.54-11,2.31-2.07,4.64-3,7.61-2.11,2.2.65,4.39,1.36,6.61,1.93a4.4,4.4,0,0,1,3.23,2.88,71.35,71.35,0,0,1,2.17,8c.32,1.52-1.46,2.44-3.21,1.8A15.33,15.33,0,0,1,342.64,54a4.57,4.57,0,0,1-1.47-1.75A35.66,35.66,0,0,1,339.84,49Z"/><path class="cls-1" d="M216.71,75.92c-4.1-6-8.4-11.46-10.23-18.36l-.63.16c-.2.73-.36,1.48-.6,2.2-1,3.2-1.93,6.46-3.17,9.59-1.09,2.72-3.69,3.77-6.29,4.55a18.89,18.89,0,0,1-3.43.4c-.09-.25-.18-.37-.15-.45,1.2-3.78,2.45-7.54,3.61-11.34.4-1.28.54-2.65.88-4,.57-2.16,1.18-4.31,1.84-6.43a56,56,0,0,1,2.4-6.88,7.29,7.29,0,0,1,2.7-2.64c1.73-1.12,3.6-2,5.43-3s2.76-.55,2.83,1.43c.21,5.47,2.91,10.14,4.55,15.15a103.23,103.23,0,0,1,3.42,12.38,6.33,6.33,0,0,1-2.16,6.54C217.35,75.55,217,75.76,216.71,75.92Z"/><path class="cls-1" d="M160.82,52.09a12.66,12.66,0,0,0,3.08,0c4.06-1,6.9,1,9.55,3.61a2.35,2.35,0,0,1,.66,1.08c1.2,5.08,1.15,11.27-3.75,15a6.31,6.31,0,0,1-5.19,1.06c-4.16-.74-8.29-1.67-12.43-2.57a2.55,2.55,0,0,1-2-2.84c0-2.13-.15-4.26-.12-6.38s.14-4.05.32-6.07c.26-2.85.71-5.69.88-8.54a43.45,43.45,0,0,0-.23-5.34c-.08-1.37.43-2,1.88-1.82.85.12,1.71.1,2.57.15,3.95.24,5.11,2.87,4.06,6.88-.24.89-.7,1.64.29,2.58.58.54.45,1.82.65,2.77Zm4.52,2.3c-1.54,1.41-3,2.26-3.73,3.51-1.63,2.7-.78,5.84-1,8.79,0,.21.44.6.73.68,3.14.92,5.71-.93,5.61-4.21a43.5,43.5,0,0,0-.83-5.86C166,56.49,165.69,55.7,165.34,54.39Z"/><path class="cls-1" d="M10.77,121c-1.2.87-2.39,1.75-3.62,2.59-.15.1-.65,0-.69-.07a1.71,1.71,0,0,1-.11-1c.38-1.18,2.66-2.26,4.09-2Z"/></g></g></svg>